<svg width="19" height="16" viewBox="0 0 19 16" fill="none" xmlns="http://www.w3.org/2000/svg">
<path d="M1.64484 3.05956L2.05473 3.3459L2.06186 3.33569L2.06848 3.32514L1.64484 3.05956ZM9.45281 2.9781L9.03584 3.25403L9.4487 3.87792L9.86724 3.25783L9.45281 2.9781ZM17.4418 6.94629L17.0174 6.68199L17.0083 6.69654L17.0003 6.71168L17.4418 6.94629ZM10.1812 14.6907L9.84654 14.3192L10.1812 14.6907ZM9.82819 15.012L9.47837 14.6547L9.47836 14.6547L9.82819 15.012ZM9.11271 15.012L9.46255 14.6547L9.46 14.6523L9.11271 15.012ZM4.74601 10.959L4.41174 11.3309L4.74601 10.959ZM1.16347 6.15951L0.683485 6.29955L1.16347 6.15951ZM2.06848 3.32514C2.7418 2.25107 4.04786 1.5 5.57506 1.5V0.5C3.72533 0.5 2.08868 1.41021 1.2212 2.79399L2.06848 3.32514ZM5.57506 1.5C7.06799 1.5 8.3502 2.21791 9.03584 3.25403L9.86978 2.70218C8.98838 1.37024 7.38392 0.5 5.57506 0.5V1.5ZM9.86724 3.25783C10.5667 2.22158 11.8779 1.5 13.4081 1.5V0.5C11.5705 0.5 9.93732 1.36657 9.03838 2.69837L9.86724 3.25783ZM13.4081 1.5C15.7321 1.5 17.4999 3.13724 17.4999 5.02264H18.4999C18.4999 2.46475 16.156 0.5 13.4081 0.5V1.5ZM17.4999 5.02264C17.4999 5.62039 17.3269 6.18495 17.0174 6.68199L17.8663 7.21059C18.2684 6.56473 18.4999 5.81846 18.4999 5.02264H17.4999ZM17.0003 6.71168C16.4274 7.78985 15.005 9.37139 13.5051 10.8738C12.0226 12.3587 10.5228 13.71 9.84654 14.3192L10.5159 15.0622C11.1925 14.4526 12.7098 13.0858 14.2128 11.5803C15.6984 10.0923 17.2298 8.41099 17.8834 7.18089L17.0003 6.71168ZM9.84654 14.3192C9.66528 14.4825 9.52935 14.6048 9.47837 14.6547L10.178 15.3692C10.2095 15.3384 10.3211 15.2377 10.5159 15.0622L9.84654 14.3192ZM9.47836 14.6547C9.4675 14.6654 9.46077 14.6698 9.45891 14.6709C9.4572 14.672 9.45869 14.6708 9.46319 14.6694C9.46764 14.668 9.47267 14.6671 9.47756 14.6668C9.48226 14.6665 9.48541 14.6669 9.48656 14.6671C9.48759 14.6673 9.48674 14.6672 9.48407 14.6663C9.48136 14.6653 9.47772 14.6637 9.47351 14.6614C9.46928 14.6591 9.46562 14.6567 9.46295 14.6547C9.46011 14.6527 9.46002 14.6523 9.46254 14.6547L8.76288 15.3692C8.87989 15.4838 9.07777 15.6145 9.32913 15.6546C9.6098 15.6994 9.91895 15.6229 10.178 15.3692L9.47836 14.6547ZM9.46 14.6523C7.53728 12.7959 6.12982 11.5307 5.08028 10.5872L4.41174 11.3309C5.45904 12.2723 6.85584 13.528 8.76542 15.3717L9.46 14.6523ZM5.08028 10.5872C3.85319 9.48408 3.15417 8.85319 2.67353 8.23667C2.21303 7.646 1.94639 7.05774 1.64346 6.01946L0.683485 6.29955C1.00503 7.40161 1.3167 8.12271 1.88487 8.85151C2.4329 9.55447 3.21291 10.2532 4.41174 11.3309L5.08028 10.5872ZM1.64346 6.01946C1.31376 4.88945 1.59563 4.00311 2.05473 3.3459L1.23495 2.77323C0.628322 3.64163 0.257007 4.83782 0.683485 6.29955L1.64346 6.01946Z" fill="#333333"/>
</svg>
